<?xml version="1.0" standalone="no"?>
<!DOCTYPE svg PUBLIC "-//W3C//DTD SVG 1.1//EN" "http://www.w3.org/Graphics/SVG/1.1/DTD/svg11.dtd"><svg t="1615119372524"
  class="icon" viewBox="0 0 1024 1024" version="1.1" xmlns="http://www.w3.org/2000/svg" p-id="8439"
  data-spm-anchor-id="a313x.7781069.0.i1" xmlns:xlink="http://www.w3.org/1999/xlink" width="200" height="200">
  <defs>
    <style type="text/css"></style>
  </defs>
  <path
    d="M752.17445088 532.78953506c0.44315156-0.81064424 0.94034708-1.5996709 1.29703008-2.44274063s0.52962099-1.65371309 0.78902665-2.47516523 0.58366318-1.67533066 0.75660117-2.54001797a25.86494355 25.86494355 0 0 0 0.29183204-2.58325136c0.09727734-0.86468643 0.24859776-1.72937373 0.25940566-2.59406104a25.51906933 25.51906933 0 0 0-0.2053626-2.57244258c-0.07565977-0.87549521-0.08646855-1.76179922-0.24859775-2.62648653s-0.45396036-1.66452187-0.69174931-2.49678281a26.51345859 26.51345859 0 0 0-0.75660117-2.55082675 25.87575234 25.87575234 0 0 0-1.21056153-2.37788789c-0.41072607-0.78902666-0.74579238-1.5996709-1.24298701-2.36708086s-1.08085869-1.42673291-1.70775615-2.16171651-0.98358135-1.37269073-1.58886211-1.99958818l-0.17293799-0.14051162a0.95115586 0.95115586 0 0 0-0.12970283-0.16212921L315.83187617 70.03077823a27.47542325 27.47542325 0 0 0-38.68392568-0.07565977 27.02146201 27.02146201 0 0 0-0.07565976 38.43532792l412.17457851 411.11533741L276.79126748 915.26212198a27.02146201 27.02146201 0 0 0-0.68094053 38.43532792 27.47542325 27.47542325 0 0 0 38.6839248 0.67013262l432.44067569-414.93076787 0.14051162-0.16212832 0.1621292-0.12970371c0.59447197-0.59447197 1.08085869-1.26460459 1.55643575-1.89150205a26.81609941 26.81609941 0 0 0 1.82665107-2.16171739 25.68119766 25.68119766 0 0 0 1.2537958-2.30222812z"
    fill="#fd79a8" p-id="8440"></path>
</svg>